<?xml version="1.0" encoding="UTF-8"?>
<svg width="97px" height="24px" viewBox="0 0 97 24" version="1.1" xmlns="http://www.w3.org/2000/svg" xmlns:xlink="http://www.w3.org/1999/xlink">
    <!-- Generator: sketchtool 61 (101010) - https://sketch.com -->
    <title>B591CF66-B672-4B8C-8F7A-35A37390AC36</title>
    <desc>Created with sketchtool.</desc>
    <g id="Page-1" stroke="none" stroke-width="1" fill="none" fill-rule="evenodd">
        <g id="Landing-Page-Desktop" transform="translate(-160.000000, -56.000000)" fill="#1A9D77" fill-rule="nonzero">
            <g id="Header" transform="translate(0.000000, 32.000000)">
                <path d="M162.437648,30.5913876 L166.002134,30.5913876 L166.02513,31.9004785 C166.592385,31.3033463 167.182627,30.866987 167.795875,30.5913876 C168.409123,30.3157881 169.00703,30.1779904 169.589616,30.1779904 C170.846774,30.1779904 171.793461,30.5875557 172.429706,31.4066986 C173.065951,32.2258414 173.384068,33.4009493 173.384068,34.9320574 C173.384068,36.2488104 173.169435,37.5425774 172.740161,38.8133971 C172.310888,40.0842169 171.609496,41.1444934 170.635965,41.9942584 C169.662434,42.8440234 168.409127,43.2688995 166.876008,43.2688995 C166.032792,43.2688995 165.312236,43.1540681 164.71432,42.9244019 L164.024419,47.5636364 L160,48 L162.437648,30.5913876 Z M166.485064,40.3062201 C167.128974,40.3062201 167.657893,40.0344525 168.071835,39.4909091 C168.485777,38.9473657 168.784731,38.2736882 168.968706,37.4698565 C169.15268,36.6660247 169.244666,35.8660327 169.244666,35.0698565 C169.244666,34.3502356 169.133516,33.8488052 168.911214,33.5655502 C168.688911,33.2822952 168.386125,33.1406699 168.002845,33.1406699 C167.266947,33.1406699 166.577054,33.5770291 165.933144,34.4497608 L165.151257,40.0535885 C165.595861,40.2220104 166.040459,40.3062201 166.485064,40.3062201 Z M179.846136,30.5913876 L178.144381,42.8325359 L174.119962,42.8325359 L175.821716,30.5913876 L179.846136,30.5913876 Z M178.167378,28.5014354 C177.538799,28.5014354 177.03671,28.3177052 176.661095,27.9502392 C176.285481,27.5827733 176.097677,27.1081369 176.097677,26.5263158 C176.097677,25.806695 176.346805,25.205744 176.845069,24.723445 C177.343333,24.2411459 177.960404,24 178.696302,24 C179.324881,24 179.82697,24.1837302 180.202584,24.5511962 C180.578198,24.9186621 180.766003,25.3932985 180.766003,25.9751196 C180.766003,26.6947404 180.516875,27.2956914 180.018611,27.7779904 C179.520347,28.2602895 178.903275,28.5014354 178.167378,28.5014354 Z M189.803698,30.1779904 C190.662245,30.1779904 191.332975,30.4306195 191.815908,30.9358852 C192.298841,31.4411509 192.540303,32.1531055 192.540303,33.0717703 C192.540303,33.3167476 192.517307,33.592343 192.471313,33.8985646 L191.229493,42.8325359 L187.205073,42.8325359 L188.331911,34.8861244 C188.362573,34.6105249 188.377904,34.4421056 188.377904,34.3808612 C188.377904,33.7990402 188.178602,33.508134 187.779991,33.508134 C187.427373,33.508134 187.05943,33.7454522 186.67615,34.2200957 C186.29287,34.6947392 185.886599,35.3837275 185.457326,36.2870813 L184.514462,42.8325359 L180.490043,42.8325359 L182.191797,30.5913876 L185.687293,30.5913876 L185.664296,32.6813397 C186.170225,31.9157856 186.79113,31.3071793 187.527027,30.8555024 C188.262924,30.4038255 189.021807,30.1779904 189.803698,30.1779904 Z M200.842105,30.1779904 C201.731315,30.1779904 202.628176,30.2889941 203.532717,30.5110048 C204.437258,30.7330155 205.280461,31.0736819 206.062352,31.5330144 L204.613561,41.6842105 C204.291606,43.9196284 203.609378,45.5310955 202.566856,46.5186603 C201.524335,47.506225 199.968242,48 197.89853,48 C197.13197,48 196.327094,47.8736855 195.483879,47.6210526 C194.640663,47.3684198 193.88178,47.0277533 193.207207,46.5990431 L194.518018,43.9808612 C195.69852,44.6239267 196.817681,44.9454545 197.875533,44.9454545 C198.611431,44.9454545 199.213171,44.7693798 199.680773,44.4172249 C200.148374,44.06507 200.458826,43.3837371 200.612138,42.3732057 L200.773115,41.3167464 C199.883906,42.3272778 198.833735,42.8325359 197.62257,42.8325359 C196.319418,42.8325359 195.319073,42.4000043 194.621503,41.5349282 C193.923934,40.6698521 193.575154,39.5023997 193.575154,38.0325359 C193.575154,36.8076494 193.82045,35.5942644 194.311048,34.3923445 C194.801646,33.1904246 195.595024,32.1875638 196.691204,31.3837321 C197.787385,30.5799003 199.171005,30.1779904 200.842105,30.1779904 Z M200.727122,33.0258373 C200.021887,33.0258373 199.446976,33.2822941 199.002371,33.7952153 C198.557766,34.3081365 198.235816,34.9397129 198.03651,35.6899522 C197.837205,36.4401951 197.737553,37.1827714 197.737553,37.9177033 C197.737553,39.1885231 198.151489,39.8239234 198.979374,39.8239234 C199.684609,39.8239234 200.382168,39.3263208 201.072072,38.3311005 L201.876956,33.2095694 C201.432351,33.0870807 201.049077,33.0258373 200.727122,33.0258373 Z M215.582978,30.1779904 C216.809473,30.1779904 217.74083,30.5875557 218.377074,31.4066986 C219.013319,32.2258414 219.331437,33.4009493 219.331437,34.9320574 C219.331437,36.2947437 219.116803,37.6038215 218.68753,38.8593301 C218.258256,40.1148388 217.499373,41.1636322 216.410858,42.0057416 C215.322343,42.8478511 213.85057,43.2688995 211.995495,43.2688995 C210.26307,43.2688995 208.523005,42.9014391 206.775249,42.1665072 L209.074917,25.7684211 L213.14533,25.3550239 L212.271456,31.5789474 C212.700729,31.1502371 213.210484,30.8095706 213.800735,30.5569378 C214.390986,30.304305 214.985061,30.1779904 215.582978,30.1779904 Z M213.950213,33.1406699 C213.214316,33.1406699 212.524422,33.5770291 211.880512,34.4497608 L211.098625,40.0535885 C211.573892,40.2220104 212.026156,40.3062201 212.455429,40.3062201 C213.084008,40.3062201 213.605261,40.0344525 214.019203,39.4909091 C214.433146,38.9473657 214.7321,38.2736882 214.916074,37.4698565 C215.100048,36.6660247 215.192034,35.8660327 215.192034,35.0698565 C215.192034,34.3502356 215.080885,33.8488052 214.858582,33.5655502 C214.63628,33.2822952 214.333493,33.1406699 213.950213,33.1406699 Z M227.357278,30.1779904 C228.246488,30.1779904 229.139517,30.2889941 230.036392,30.5110048 C230.933267,30.7330155 231.780303,31.0736819 232.577525,31.5330144 L231.473684,39.1119617 C231.443022,39.3875612 231.427691,39.563636 231.427691,39.6401914 C231.427691,39.8851687 231.469851,40.0765543 231.554173,40.2143541 C231.638494,40.3521538 231.795637,40.4669852 232.025605,40.5588517 L230.875771,43.1770335 C230.139873,43.1311002 229.499805,42.9397146 228.955548,42.6028708 C228.41129,42.266027 228.039514,41.7837352 227.840209,41.1559809 C226.859012,42.5646003 225.6402,43.2688995 224.183736,43.2688995 C222.911247,43.2688995 221.926232,42.8287125 221.228663,41.9483254 C220.531093,41.0679382 220.182314,39.8622086 220.182314,38.3311005 C220.182314,37.0296586 220.427609,35.7588579 220.918208,34.5186603 C221.408806,33.2784627 222.190685,32.2449802 223.263869,31.4181818 C224.337053,30.5913834 225.701509,30.1779904 227.357278,30.1779904 Z M227.219298,33.0258373 C226.238102,33.0258373 225.513713,33.5693726 225.046112,34.6564593 C224.57851,35.7435461 224.344713,36.9684142 224.344713,38.3311005 C224.344713,39.0660324 224.448197,39.5751182 224.655168,39.8583732 C224.862139,40.1416282 225.149595,40.2832536 225.517544,40.2832536 C226.253441,40.2832536 226.935669,39.7703401 227.564248,38.7444976 L228.369132,33.2095694 C227.95519,33.0870807 227.571916,33.0258373 227.219298,33.0258373 Z M240.44239,30.1779904 C242.067497,30.1779904 243.408956,30.7215257 244.466809,31.8086124 L242.512091,34.1282297 C241.898843,33.5617197 241.216615,33.2784689 240.465386,33.2784689 C239.422865,33.2784689 238.686979,33.7607607 238.257705,34.7253589 C237.828432,35.689957 237.613798,36.7923383 237.613798,38.0325359 C237.613798,38.7827789 237.763275,39.3071755 238.062233,39.6057416 C238.361192,39.9043077 238.794291,40.0535885 239.361546,40.0535885 C239.744826,40.0535885 240.108936,39.9885174 240.453888,39.8583732 C240.79884,39.728229 241.201278,39.5177048 241.661214,39.2267943 L243.133001,41.8220096 C241.799187,42.7866077 240.358076,43.2688995 238.809625,43.2688995 C237.107863,43.2688995 235.777896,42.7866077 234.819701,41.8220096 C233.861506,40.8574114 233.382409,39.5559891 233.382409,37.9177033 C233.382409,36.7540612 233.631537,35.5751256 234.129801,34.3808612 C234.628065,33.1865969 235.406111,32.1875638 236.463964,31.3837321 C237.521817,30.5799003 238.847945,30.1779904 240.44239,30.1779904 Z M249.595069,32.0382775 C250.744909,30.7980799 252.078703,30.1779904 253.596491,30.1779904 C254.639013,30.1779904 255.466885,30.449758 256.080133,30.9933014 C256.693381,31.5368448 257,32.2526271 257,33.1406699 C257,35.0392439 255.934498,36.4554977 253.803461,37.3894737 L255.919156,42.8325359 L251.52679,42.8325359 L249.526079,36.95311 C250.767906,36.5397109 251.641771,36.084213 252.1477,35.5866029 C252.65363,35.0889927 252.906591,34.5263189 252.906591,33.8985646 C252.906591,33.2861213 252.58464,32.9799043 251.94073,32.9799043 C251.005527,32.9799043 250.070338,33.7148252 249.135135,35.184689 L248.100284,42.8325359 L244.052869,42.8325359 L246.444523,25.7684211 L250.537933,25.3550239 L249.595069,32.0382775 Z" id="Pingback-Logo"></path>
            </g>
        </g>
    </g>
</svg>